<!-- Generated by IcoMoon.io -->
<svg version="1.1" xmlns="http://www.w3.org/2000/svg" width="32" height="32" viewBox="0 0 32 32">
<title>gulp</title>
<path fill="#fff" d="M20.216 25.92l0.848-1.448s-1.928 0.79-5.156 0.79c-3.228 0-5.128-0.76-5.128-0.76l0.95 1.58 0.336 4.98c0 0.54 1.756 0.96 3.92 0.96 2.168 0 3.924-0.42 3.924-0.96l0.306-5.12zM21.036 16.51c-1.026 0.060-1.54 1.206-2.056 2.41-0.19 0.44-0.84 2.32-1.266 2.088s0.552-1.776 0.826-2.694c-0.316 0.232-1.476 1.134-1.774 0.288-0.48 0.42-1.508 0.64-1.392-0.44-0.256 0.46-0.83 1.1-1.52 0.82-0.9-0.34 0.526-3.22 0.88-3.080 0.356 0.16-0.070 0.8-0.18 1.060-0.248 0.56-0.532 1.28-0.34 1.42 0.32 0.26 1.206-0.94 1.226-0.96 0.166-0.22 0.64-1.64 1.020-1.48 0.38 0.18-0.95 2.060-0.454 2.44 0.1 0.080 0.51-0.040 0.76-0.32 0.16-0.16 0.104-0.56 0.64-1.84 0.54-1.28 1.020-2.88 1.388-2.76s0.064 0.94-0.068 1.26c-0.62 1.44-1.694 3.8-1.188 3.62 0.5-0.18 0.76-0.18 1.26-0.76s0.46-1.54 0.8-1.52c0.32 0.020 0.28 0.34 0.2 0.56 0.32-0.36 1.54-1.16 1.82-0.38 0.34 0.92-1.74 2.26-1.22 2.18 0.5-0.060 1.32-0.58 1.68-1.060l0.96-8.68s-0.98 0.8-7.16 0.8-7.060-0.78-7.060-0.78l0.82 7.92c0.44-1.24 1.48-3.76 3.1-3.66 0.74 0.040 1.74 1.48 0.88 1.52-0.36 0.020-0.4-0.72-0.82-0.82-0.32-0.060-0.74 0.18-1.020 0.46-0.54 0.54-1.74 2.68-1.58 3.74 0.2 1.36 1.88-0.46 2.16-1 0.2-0.38 0.34-1.52 0.76-1.4 0.44 0.12-0.040 1.3-0.36 2.32-0.36 1.16-0.54 2.38-0.98 2.24s0.28-1.64 0.24-1.9c-0.42 0.4-1.18 1.36-2.18 0.88l0.5 4.94s1.36 1.060 5.44 1.060 5.5-1.060 5.5-1.060l0.64-5.72c-0.52 0.52-2.16 1.42-2.26 0.4-0.080-0.82 1.78-2 1.3-2.020zM23.162 0.838v-0.040c0.080-0.12-0.060-0.38-0.32-0.58-0.258-0.22-0.54-0.32-0.632-0.2l-3.774 4-0.748 3.040c-0.562-0.020-1.124-0.020-1.688-0.020-3.976 0-7.2 0.46-7.2 1.020s3.224 1.020 7.2 1.020c3.976 0 7.2-0.452 7.2-1.012 0-0.412-1.748-0.766-4.26-0.926l0.648-2.54 3.552-3.74zM18.020 8.6s-0.7 0-0.816-0.108c-0.030-0.032-0.048-0.076-0.048-0.12 0-0.076 0.052-0.12 0.12-0.146l0.060 0.1c-0.028 0.008-0.040 0.020-0.044 0.030 0 0.056 0.42 0.094 0.74 0.090s0.71-0.032 0.712-0.086c0-0.016-0.030-0.032-0.080-0.044l0.060-0.096c0.084 0.026 0.156 0.076 0.156 0.16 0 0.148-0.188 0.172-0.308 0.188-0.144 0.020-0.55 0.032-0.55 0.032z"></path>
</svg>
