<svg xmlns="http://www.w3.org/2000/svg" width="29" height="29" viewBox="0 0 512 512"><path fill="#ffffff" d="M438 92v328c0 9.9-8.1 18-18 18H92c-9.9 0-18-8.1-18-18V92c0-9.9 8.1-18 18-18h328c9.9 0 18 8.1 18 18zm-17-46H91c-24.8 0-45 20.2-45 45v330c0 24.8 20.2 45 45 45h330c24.8 0 45-20.2 45-45V91c0-24.8-20.2-45-45-45z"/><g fill="#ffffff"><path d="M154 373.5h2s11.5 3.2 21.2 3.2c9 0 16.8-2.8 21.2-9.2 4.5-6.8 4.5-14.8 4.5-25.5V219h42.8v119.5c0 15 0 32.8-10.5 47.5-12 17-33 22.5-54.5 22.5-16 0-26.8-3-26.8-3v-32h.1zM400 256h-2s-24.8-9-45-9c-18.2 0-26.8 7.2-26.8 17.8C326.2 298 409 289 409 352c0 37.8-29.5 57-75.2 57-30.5 0-51.5-8.5-51.5-8.5V368h2s28.2 11 50.2 11c18.8 0 29.8-8 29.8-21 0-35.2-82.8-27.8-82.8-87.5 0-34 26.5-53.5 70.5-53.5 26.8 0 48 7.2 48 7.2V256z"/></g></svg>
