<!-- Generated by IcoMoon.io -->
<svg version="1.1" xmlns="http://www.w3.org/2000/svg" width="32" height="32" viewBox="0 0 32 32">
<title>js</title>
<path fill="#fff" d="M0 0h32v32h-32v-32zM29.38 24.368c-0.234-1.46-1.186-2.686-4.006-3.83-0.98-0.46-2.070-0.78-2.396-1.52-0.12-0.44-0.14-0.68-0.060-0.94 0.2-0.86 1.22-1.12 2.020-0.88 0.52 0.16 1 0.56 1.3 1.2 1.38-0.9 1.38-0.9 2.34-1.5-0.36-0.56-0.54-0.8-0.78-1.040-0.84-0.94-1.96-1.42-3.78-1.38l-0.94 0.12c-0.9 0.22-1.76 0.7-2.28 1.34-1.52 1.72-1.080 4.72 0.76 5.96 1.82 1.36 4.48 1.66 4.82 2.94 0.32 1.56-1.16 2.060-2.62 1.88-1.080-0.24-1.68-0.78-2.34-1.78l-2.44 1.4c0.28 0.64 0.6 0.92 1.080 1.48 2.32 2.34 8.12 2.22 9.16-1.34 0.040-0.12 0.32-0.94 0.1-2.2zM17.4 14.708h-2.996c0 2.584-0.012 5.152-0.012 7.74 0 1.644 0.084 3.152-0.184 3.614-0.44 0.92-1.572 0.8-2.088 0.64-0.528-0.26-0.796-0.62-1.106-1.14-0.084-0.14-0.148-0.26-0.17-0.26l-2.434 1.5c0.406 0.84 1 1.56 1.766 2.020 1.14 0.68 2.672 0.9 4.276 0.54 1.044-0.3 1.944-0.92 2.414-1.88 0.68-1.24 0.536-2.76 0.53-4.46 0.016-2.74 0-5.48 0-8.24z"></path>
</svg>
