<svg xmlns="http://www.w3.org/2000/svg" width="760" height="760" viewBox="0 0 760 760">
  <metadata><?xpacket begin="﻿" id="W5M0MpCehiHzreSzNTczkc9d"?>
<x:xmpmeta xmlns:x="adobe:ns:meta/" x:xmptk="Adobe XMP Core 5.6-c138 79.159824, 2016/09/14-01:09:01        ">
   <rdf:RDF xmlns:rdf="http://www.w3.org/1999/02/22-rdf-syntax-ns#">
      <rdf:Description rdf:about=""/>
   </rdf:RDF>
</x:xmpmeta>
                                                                                                    
                                                                                                    
                                                                                                    
                                                                                                    
                                                                                                    
                                                                                                    
                                                                                                    
                                                                                                    
                                                                                                    
                                                                                                    
                                                                                                    
                                                                                                    
                                                                                                    
                                                                                                    
                                                                                                    
                                                                                                    
                                                                                                    
                                                                                                    
                                                                                                    
                                                                                                    
                           
<?xpacket end="w"?></metadata>
<defs>
    <style>
      .cls-1 {
        fill: #fff;
        fill-rule: evenodd;
      }
    </style>
  </defs>
  <path id="G" class="cls-1" d="M555.691,132.978q-25.553-22.322-59.187-22.322H424.379q-97.682,0-182.092,42.057Q152.7,197.685,105.153,277.59q-33.96,56.943-33.96,111.936,0,99,96.382,143.641,70.832,32.68,183.385,32.675L321.2,646.721q14.554,0.645,25.875.647,96.7,0,122.256-72.144Q523.02,422.53,549.546,345.852H428.907L368.749,514.08q-69.543,0-112.231-29.764Q207.033,450.029,207.033,383.7q0-78.933,59.835-146.876Q328.641,166.3,406.59,166.3h7.115a89.514,89.514,0,0,0-3.234,22.647q0,33.649,26.521,55.968,25.546,21.351,59.512,21.352,34.278,0,59.511-21.352,26.842-22.323,26.845-55.968,0-33-27.169-55.969h0Z"/>
  <path id=":" class="cls-1" d="M666.866,351.675q-16.5-15.2-39.782-15.2t-39.782,15.2q-16.5,15.21-16.5,36.557T587.14,424.79q16.327,15.21,39.3,15.2,23.606,0,40.267-15.2t16.656-36.558Q683.36,366.881,666.866,351.675Zm-30.4,135.877q-16.5-15.2-39.782-15.206-23.613,0-39.944,15.206T540.4,524.109q0,21.353,16.333,36.557t39.944,15.2q23.287,0,39.782-15.2t16.5-36.557Q652.958,502.757,636.463,487.552Z"/>
</svg>
